<svg width="32" height="32" viewBox="0 0 85 96" xmlns="http://www.w3.org/2000/svg">
  <rect width="85" height="96" rx="8" fill="#080808"/>
  <path d="M34.77 13.67C32.72 12.23 29.21 10.55 26.9 9.88C21.68 8.28 17.56 9.18 14.83 10.13C9.52 11.98 6.18 14.42 3.19 18.89C-1.52 25.79 -0.84 36.99 4.9 43.3C6.18 44.82 6.87 44.57 11.83 40.95C12 40.78 11.32 39.68 10.29 38.42C7.98 35.56 6.61 30.34 7.3 27.39C9.52 18.13 20.91 13.16 28.27 18.21C29.89 19.31 35.03 23.85 39.65 28.32C46.58 34.88 48.64 36.4 50.35 36.23C52.06 36.06 52.66 35.47 52.83 33.62C53.09 31.6 52.32 30.42 48.38 26.88C45.73 24.44 43.59 22.25 43.59 21.83C43.59 21.5 45.39 20.06 47.61 18.72C61.99 9.71 77.48 27.64 65.5 39.43C63.96 40.95 61.22 42.55 59.42 43.05C57.37 43.56 47.87 43.98 36.06 43.98C13.97 43.98 12.77 44.23 6.95 49.37C-0.49 56.02 -2.2 67.38 3.02 75.64C9.78 86.41 24.33 89.11 34.6 81.45L38.37 78.58L42.73 81.45C49.84 86.16 55.57 87.09 62.5 84.81C76.37 80.18 81.51 62.84 72.52 51.22C71.49 49.96 70.98 49.87 69.61 50.54C65.41 52.9 65.5 52.73 67.98 57.79C69.87 61.66 70.21 63.17 69.78 66.12C68.58 73.53 62.93 78.5 55.74 78.5C50.18 78.5 48.38 77.4 38.11 67.55C32.72 62.5 27.75 58.29 27.07 58.29C25.78 58.29 23.05 60.9 23.05 62.16C23.05 62.5 25.36 65.2 28.27 68.06L33.49 73.19L30.41 75.55C19.54 83.72 4.04 73.95 7.64 61.15C8.75 57.28 12.69 52.99 16.45 51.64C17.91 51.05 26.9 50.71 39.05 50.71C61.39 50.71 64.05 50.29 69.18 45.91C84.5 33.12 75.6 9.03 55.57 9.12C49.75 9.12 46.58 10.3 41.19 14.25L38.45 16.28L34.77 13.67Z" fill="#F8BB2D"/>
</svg>